<mxfile host="www.draw.io" modified="2019-12-06T03:12:09.294Z" agent="Mozilla/5.0 (Windows NT 10.0; Win64; x64) AppleWebKit/537.36 (KHTML, like Gecko) Chrome/75.0.3770.80 Safari/537.36" etag="4NaJFunAJFnW9oIITAeJ" version="12.3.7" type="github" pages="1">
  <diagram id="5eoMnswrfS3O2oJ6f59O" name="第 1 页">
    <mxGraphModel dx="722" dy="451" grid="1" gridSize="10" guides="1" tooltips="1" connect="1" arrows="1" fold="1" page="1" pageScale="1" pageWidth="1920" pageHeight="1200" math="0" shadow="0">
      <root>
        <mxCell id="0"/>
        <mxCell id="1" parent="0"/>
        <mxCell id="qfjxstYWeqEn1JFROqfA-1" value="" style="whiteSpace=wrap;html=1;aspect=fixed;" vertex="1" parent="1">
          <mxGeometry x="110" y="990" width="80" height="80" as="geometry"/>
        </mxCell>
      </root>
    </mxGraphModel>
  </diagram>
</mxfile>
